<?xml version="1.0" standalone="no"?>
<!DOCTYPE svg PUBLIC "-//W3C//DTD SVG 20010904//EN"
 "http://www.w3.org/TR/2001/REC-SVG-20010904/DTD/svg10.dtd">
<svg version="1.0" xmlns="http://www.w3.org/2000/svg"
 width="32.000000pt" height="32.000000pt" viewBox="0 0 32.000000 32.000000"
 preserveAspectRatio="xMidYMid meet">
<metadata>
Created by potrace 1.16, written by Peter Selinger 2001-2019
</metadata>
<g transform="translate(0.000000,32.000000) scale(0.100000,-0.100000)"
fill="#000000" stroke="none">
<path d="M122 148 c-17 -17 -15 -93 2 -107 9 -8 43 -11 93 -9 l78 3 0 60 0 60
-80 3 c-54 2 -84 -1 -93 -10z m152 -4 c11 -4 16 -19 16 -50 l0 -44 -80 0 -80
0 0 43 c0 24 3 47 7 50 8 9 116 9 137 1z"/>
</g>
</svg>
